<svg width="63" height="43" viewBox="0 0 63 43" fill="none" xmlns="http://www.w3.org/2000/svg">
<path d="M31.75 0.875C17.6591 0.875 5.62545 9.583 0.75 21.875C5.62545 34.167 17.6591 42.875 31.75 42.875C45.8409 42.875 57.8745 34.167 62.75 21.875C57.8745 9.583 45.8409 0.875 31.75 0.875ZM31.75 35.875C23.9718 35.875 17.6591 29.603 17.6591 21.875C17.6591 14.147 23.9718 7.875 31.75 7.875C39.5282 7.875 45.8409 14.147 45.8409 21.875C45.8409 29.603 39.5282 35.875 31.75 35.875ZM31.75 13.475C27.0718 13.475 23.2955 17.227 23.2955 21.875C23.2955 26.523 27.0718 30.275 31.75 30.275C36.4282 30.275 40.2045 26.523 40.2045 21.875C40.2045 17.227 36.4282 13.475 31.75 13.475Z" fill="#1B1B1B"/>
</svg>
