<svg width="56" height="56" viewBox="0 0 56 56" fill="none" xmlns="http://www.w3.org/2000/svg">
<path d="M28 3.05176e-05C30.5088 3.05176e-05 32.9392 0.330431 35.252 0.94923L29.2992 6.89923C28.8476 7.35264 28.4493 7.85617 28.112 8.40003H28C24.1235 8.40003 20.334 9.54955 17.1108 11.7032C13.8876 13.8569 11.3754 16.918 9.89196 20.4994C8.40848 24.0809 8.02034 28.0218 8.77661 31.8238C9.53288 35.6258 11.3996 39.1182 14.1407 41.8593C16.8818 44.6004 20.3742 46.4672 24.1762 47.2234C27.9783 47.9797 31.9192 47.5915 35.5006 46.1081C39.082 44.6246 42.1431 42.1124 44.2968 38.8892C46.4505 35.666 47.6 31.8765 47.6 28V27.888C48.1413 27.552 48.6407 27.1554 49.098 26.698L55.0508 20.748C55.6696 23.0608 56 25.4912 56 28C56 43.4644 43.4644 56 28 56C12.5356 56 0 43.4644 0 28C0 12.5356 12.5356 3.05176e-05 28 3.05176e-05ZM26.8408 14.0476C26.8408 16.4304 26.7232 18.8468 26.852 21.2268L25.34 22.7388C24.8199 23.2589 24.4073 23.8764 24.1258 24.556C23.8443 25.2355 23.6995 25.9639 23.6995 26.6994C23.6995 27.435 23.8443 28.1633 24.1258 28.8429C24.4073 29.5225 24.8199 30.1399 25.34 30.66C25.8601 31.1801 26.4776 31.5927 27.1571 31.8742C27.8367 32.1557 28.565 32.3006 29.3006 32.3006C30.0362 32.3006 30.7645 32.1557 31.4441 31.8742C32.1236 31.5927 32.7411 31.1801 33.2612 30.66L34.7732 29.148C37.1532 29.2768 39.5668 29.1592 41.9524 29.1592C41.7312 31.8202 40.7537 34.3624 39.1351 36.486C37.5165 38.6097 35.3244 40.2261 32.8173 41.1448C30.3102 42.0635 27.5926 42.246 24.9852 41.6709C22.3777 41.0958 19.9891 39.7871 18.101 37.899C16.213 36.0109 14.9042 33.6223 14.3291 31.0149C13.754 28.4074 13.9366 25.6898 14.8552 23.1827C15.7739 20.6756 17.3904 18.4835 19.514 16.8649C21.6376 15.2463 24.1798 14.2688 26.8408 14.0476ZM46.2112 0.355631C46.7223 0.567532 47.1591 0.926094 47.4666 1.38606C47.7741 1.84602 47.9384 2.38676 47.9388 2.94003V8.06403H53.06C53.6137 8.06415 54.1549 8.22843 54.6153 8.53611C55.0756 8.84378 55.4344 9.28104 55.6463 9.7926C55.8582 10.3042 55.9136 10.8671 55.8056 11.4101C55.6976 11.9532 55.4311 12.452 55.0396 12.8436L45.136 22.736C44.611 23.2612 43.8989 23.5563 43.1564 23.5564H36.4L31.2816 28.6776C30.7562 29.203 30.0436 29.4982 29.3006 29.4982C28.5576 29.4982 27.845 29.203 27.3196 28.6776C26.7942 28.1522 26.499 27.4396 26.499 26.6966C26.499 25.9536 26.7942 25.241 27.3196 24.7156L32.4408 19.6V12.8408C32.4405 12.4727 32.5128 12.1081 32.6536 11.7679C32.7944 11.4278 33.0008 11.1187 33.2612 10.8584L43.1592 0.96043C43.5508 0.568619 44.0498 0.301754 44.593 0.193598C45.1363 0.0854428 45.6994 0.140857 46.2112 0.35283" fill="black"/>
</svg>
