<svg width="14" height="14" viewBox="0 0 14 14" fill="none" xmlns="http://www.w3.org/2000/svg">
<path d="M1.55526 1.66659H4.54859L5.51326 4.07859L3.96326 5.11192C3.87198 5.17282 3.79715 5.25531 3.7454 5.35206C3.69365 5.44882 3.66658 5.55686 3.66659 5.66659C3.66859 5.72925 3.66659 5.66725 3.66659 5.66725V5.68125C3.66693 5.71107 3.66826 5.74086 3.67059 5.77059C3.67415 5.8257 3.68193 5.89903 3.69393 5.99059C3.71993 6.17059 3.76993 6.41859 3.86726 6.71059C4.06326 7.29725 4.44726 8.05659 5.19526 8.80459C5.94326 9.55259 6.70259 9.93659 7.28859 10.1326C7.58126 10.2299 7.82859 10.2793 8.00993 10.3059C8.11221 10.3208 8.21527 10.3297 8.31859 10.3326L8.32726 10.3333H8.33259C8.33259 10.3333 8.40726 10.3293 8.33326 10.3333C8.45703 10.3332 8.57835 10.2987 8.68361 10.2336C8.78887 10.1684 8.87393 10.0753 8.92926 9.96459L9.37593 9.07125L12.3333 9.56459V12.4446C10.9259 12.6479 7.12459 12.8486 4.13793 9.86192C1.15126 6.87525 1.35126 3.07325 1.55526 1.66659ZM5.04859 5.99059L6.25326 5.18792C6.50776 5.01817 6.69614 4.76606 6.78681 4.4739C6.87749 4.18173 6.86493 3.86726 6.75126 3.58325L5.78659 1.17125C5.6876 0.923856 5.51675 0.711795 5.29609 0.562427C5.07542 0.413058 4.81506 0.333234 4.54859 0.333252H1.52059C0.914593 0.333252 0.344593 0.753919 0.24526 1.41125C0.0185934 2.90592 -0.28874 7.32059 3.19526 10.8046C6.67926 14.2886 11.0939 13.9806 12.5886 13.7546C13.2459 13.6546 13.6666 13.0853 13.6666 12.4793V9.56459C13.6666 9.24896 13.5547 8.94356 13.3507 8.7027C13.1467 8.46185 12.8639 8.30117 12.5526 8.24925L9.59526 7.75659C9.31399 7.70964 9.02508 7.7541 8.77094 7.88345C8.5168 8.0128 8.31083 8.22022 8.18326 8.47525L7.95259 8.93725C7.87107 8.91698 7.79035 8.89363 7.71059 8.86725C7.29726 8.72992 6.72326 8.44725 6.13793 7.86192C5.55259 7.27659 5.26993 6.70259 5.13259 6.28859C5.10022 6.1906 5.07241 6.09116 5.04926 5.99059H5.04859Z" fill="white"/>
</svg>
