<svg width="18" height="14" viewBox="0 0 18 14" fill="none" xmlns="http://www.w3.org/2000/svg">
<path fill-rule="evenodd" clip-rule="evenodd" d="M0.2106 0.312375C0.0745342 0.470005 -3.37305e-05 0.669216 1.14461e-08 0.875V11.375C1.14461e-08 12.0712 0.284463 12.7389 0.79081 13.2312C1.29716 13.7234 1.98391 14 2.69999 14H15.3C16.016 14 16.7028 13.7234 17.2092 13.2312C17.7155 12.7389 18 12.0712 18 11.375V0.88375C18.0012 0.753304 17.9724 0.624238 17.9158 0.505998C17.8591 0.387758 17.7759 0.283337 17.6724 0.200375C17.5122 0.0717731 17.3113 0.000979266 17.1036 7.83527e-09H0.899998C0.768599 -1.70871e-05 0.638789 0.0279393 0.51969 0.0819048C0.40059 0.13587 0.295089 0.214536 0.2106 0.312375ZM1.8 2.98725V11.375C1.8 11.6071 1.89482 11.8296 2.0636 11.9937C2.23238 12.1578 2.4613 12.25 2.69999 12.25H15.3C15.5387 12.25 15.7676 12.1578 15.9364 11.9937C16.1051 11.8296 16.2 11.6071 16.2 11.375V2.98725L9.63628 9.36862C9.4675 9.53266 9.23863 9.62481 8.99998 9.62481C8.76133 9.62481 8.53246 9.53266 8.36368 9.36862L1.8 2.98725Z" fill="black"/>
</svg>
