<svg width="32" height="32" viewBox="0 0 32 32" fill="none" xmlns="http://www.w3.org/2000/svg">
<path d="M5.33366 26.6666C4.60033 26.6666 3.97277 26.4057 3.45099 25.8839C2.92921 25.3621 2.66788 24.7341 2.66699 23.9999V7.99992C2.66699 7.26659 2.92833 6.63903 3.45099 6.11725C3.97366 5.59547 4.60121 5.33414 5.33366 5.33325H26.667C27.4003 5.33325 28.0283 5.59459 28.551 6.11725C29.0737 6.63992 29.3345 7.26747 29.3337 7.99992V23.9999C29.3337 24.7333 29.0728 25.3613 28.551 25.8839C28.0292 26.4066 27.4012 26.6675 26.667 26.6666H5.33366ZM16.0003 17.0999C16.1114 17.0999 16.2283 17.083 16.351 17.0493C16.4737 17.0155 16.5901 16.9657 16.7003 16.8999L26.1337 10.9999C26.3114 10.8888 26.4448 10.7501 26.5337 10.5839C26.6225 10.4177 26.667 10.2341 26.667 10.0333C26.667 9.58881 26.4781 9.25547 26.1003 9.03325C25.7225 8.81103 25.3337 8.82214 24.9337 9.06659L16.0003 14.6666L7.06699 9.06659C6.66699 8.82214 6.2781 8.81681 5.90033 9.05059C5.52255 9.28436 5.33366 9.61192 5.33366 10.0333C5.33366 10.2555 5.3781 10.4501 5.46699 10.6173C5.55588 10.7844 5.68921 10.9119 5.86699 10.9999L15.3003 16.8999C15.4114 16.9666 15.5283 17.0168 15.651 17.0506C15.7737 17.0844 15.8901 17.1008 16.0003 17.0999Z" fill="black"/>
</svg>
